<mxfile host="app.diagrams.net" modified="2024-01-23T19:37:07.624Z" agent="Mozilla/5.0 (Windows NT 10.0; Win64; x64) AppleWebKit/537.36 (KHTML, like Gecko) Chrome/120.0.0.0 Safari/537.36 Edg/120.0.0.0" etag="VhNO6rq2fepCWO7ebyvL" version="22.1.22" type="github">
  <diagram id="R2lEEEUBdFMjLlhIrx00" name="Page-1">
    <mxGraphModel dx="956" dy="570" grid="1" gridSize="10" guides="1" tooltips="1" connect="1" arrows="1" fold="1" page="1" pageScale="1" pageWidth="850" pageHeight="1100" math="0" shadow="0" extFonts="Permanent Marker^https://fonts.googleapis.com/css?family=Permanent+Marker">
      <root>
        <mxCell id="0" />
        <mxCell id="1" parent="0" />
        <mxCell id="C-vyLk0tnHw3VtMMgP7b-13" value="Shipments" style="shape=table;startSize=30;container=1;collapsible=1;childLayout=tableLayout;fixedRows=1;rowLines=0;fontStyle=1;align=center;resizeLast=1;labelBackgroundColor=none;sketch=1;curveFitting=1;jiggle=2;" parent="1" vertex="1">
          <mxGeometry y="420" width="250" height="130" as="geometry" />
        </mxCell>
        <mxCell id="C-vyLk0tnHw3VtMMgP7b-14" value="" style="shape=partialRectangle;collapsible=0;dropTarget=0;pointerEvents=0;fillColor=none;points=[[0,0.5],[1,0.5]];portConstraint=eastwest;top=0;left=0;right=0;bottom=1;labelBackgroundColor=none;sketch=1;curveFitting=1;jiggle=2;" parent="C-vyLk0tnHw3VtMMgP7b-13" vertex="1">
          <mxGeometry y="30" width="250" height="30" as="geometry" />
        </mxCell>
        <mxCell id="C-vyLk0tnHw3VtMMgP7b-15" value="PK" style="shape=partialRectangle;overflow=hidden;connectable=0;fillColor=none;top=0;left=0;bottom=0;right=0;fontStyle=1;labelBackgroundColor=none;sketch=1;curveFitting=1;jiggle=2;" parent="C-vyLk0tnHw3VtMMgP7b-14" vertex="1">
          <mxGeometry width="30" height="30" as="geometry">
            <mxRectangle width="30" height="30" as="alternateBounds" />
          </mxGeometry>
        </mxCell>
        <mxCell id="C-vyLk0tnHw3VtMMgP7b-16" value="shipment_idÂ int NOT NULL " style="shape=partialRectangle;overflow=hidden;connectable=0;fillColor=none;top=0;left=0;bottom=0;right=0;align=left;spacingLeft=6;fontStyle=5;labelBackgroundColor=none;sketch=1;curveFitting=1;jiggle=2;" parent="C-vyLk0tnHw3VtMMgP7b-14" vertex="1">
          <mxGeometry x="30" width="220" height="30" as="geometry">
            <mxRectangle width="220" height="30" as="alternateBounds" />
          </mxGeometry>
        </mxCell>
        <mxCell id="C-vyLk0tnHw3VtMMgP7b-17" value="" style="shape=partialRectangle;collapsible=0;dropTarget=0;pointerEvents=0;fillColor=none;points=[[0,0.5],[1,0.5]];portConstraint=eastwest;top=0;left=0;right=0;bottom=0;labelBackgroundColor=none;sketch=1;curveFitting=1;jiggle=2;" parent="C-vyLk0tnHw3VtMMgP7b-13" vertex="1">
          <mxGeometry y="60" width="250" height="30" as="geometry" />
        </mxCell>
        <mxCell id="C-vyLk0tnHw3VtMMgP7b-18" value="FK1" style="shape=partialRectangle;overflow=hidden;connectable=0;fillColor=none;top=0;left=0;bottom=0;right=0;labelBackgroundColor=none;sketch=1;curveFitting=1;jiggle=2;" parent="C-vyLk0tnHw3VtMMgP7b-17" vertex="1">
          <mxGeometry width="30" height="30" as="geometry">
            <mxRectangle width="30" height="30" as="alternateBounds" />
          </mxGeometry>
        </mxCell>
        <mxCell id="C-vyLk0tnHw3VtMMgP7b-19" value="order_id int NOT NULL" style="shape=partialRectangle;overflow=hidden;connectable=0;fillColor=none;top=0;left=0;bottom=0;right=0;align=left;spacingLeft=6;labelBackgroundColor=none;sketch=1;curveFitting=1;jiggle=2;" parent="C-vyLk0tnHw3VtMMgP7b-17" vertex="1">
          <mxGeometry x="30" width="220" height="30" as="geometry">
            <mxRectangle width="220" height="30" as="alternateBounds" />
          </mxGeometry>
        </mxCell>
        <mxCell id="C-vyLk0tnHw3VtMMgP7b-20" value="" style="shape=partialRectangle;collapsible=0;dropTarget=0;pointerEvents=0;fillColor=none;points=[[0,0.5],[1,0.5]];portConstraint=eastwest;top=0;left=0;right=0;bottom=0;labelBackgroundColor=none;sketch=1;curveFitting=1;jiggle=2;" parent="C-vyLk0tnHw3VtMMgP7b-13" vertex="1">
          <mxGeometry y="90" width="250" height="30" as="geometry" />
        </mxCell>
        <mxCell id="C-vyLk0tnHw3VtMMgP7b-21" value="" style="shape=partialRectangle;overflow=hidden;connectable=0;fillColor=none;top=0;left=0;bottom=0;right=0;labelBackgroundColor=none;sketch=1;curveFitting=1;jiggle=2;" parent="C-vyLk0tnHw3VtMMgP7b-20" vertex="1">
          <mxGeometry width="30" height="30" as="geometry">
            <mxRectangle width="30" height="30" as="alternateBounds" />
          </mxGeometry>
        </mxCell>
        <mxCell id="C-vyLk0tnHw3VtMMgP7b-22" value="shipment_date date NOT NULL" style="shape=partialRectangle;overflow=hidden;connectable=0;fillColor=none;top=0;left=0;bottom=0;right=0;align=left;spacingLeft=6;labelBackgroundColor=none;sketch=1;curveFitting=1;jiggle=2;" parent="C-vyLk0tnHw3VtMMgP7b-20" vertex="1">
          <mxGeometry x="30" width="220" height="30" as="geometry">
            <mxRectangle width="220" height="30" as="alternateBounds" />
          </mxGeometry>
        </mxCell>
        <mxCell id="C-vyLk0tnHw3VtMMgP7b-23" value="Antagonist goals" style="shape=table;startSize=40;container=1;collapsible=1;childLayout=tableLayout;fixedRows=1;rowLines=0;fontStyle=1;align=center;resizeLast=1;labelBackgroundColor=none;fontSize=20;fontFamily=Bebas Neue;fontSource=https%3A%2F%2Ffonts.googleapis.com%2Fcss%3Ffamily%3DBebas%2BNeue;sketch=1;curveFitting=1;jiggle=2;" parent="1" vertex="1">
          <mxGeometry x="250" y="80" width="360" height="160" as="geometry">
            <mxRectangle x="250" y="80" width="100" height="30" as="alternateBounds" />
          </mxGeometry>
        </mxCell>
        <mxCell id="fSEFGYRT9wEeC8FM_eow-25" style="shape=partialRectangle;collapsible=0;dropTarget=0;pointerEvents=0;fillColor=none;points=[[0,0.5],[1,0.5]];portConstraint=eastwest;top=0;left=0;right=0;bottom=1;labelBackgroundColor=none;sketch=1;curveFitting=1;jiggle=2;" vertex="1" parent="C-vyLk0tnHw3VtMMgP7b-23">
          <mxGeometry y="40" width="360" height="30" as="geometry" />
        </mxCell>
        <mxCell id="fSEFGYRT9wEeC8FM_eow-26" value="1st" style="shape=partialRectangle;overflow=hidden;connectable=0;fillColor=none;top=0;left=0;bottom=0;right=0;fontStyle=1;align=center;fontFamily=Verdana;labelBackgroundColor=none;sketch=1;curveFitting=1;jiggle=2;" vertex="1" parent="fSEFGYRT9wEeC8FM_eow-25">
          <mxGeometry width="30" height="30" as="geometry">
            <mxRectangle width="30" height="30" as="alternateBounds" />
          </mxGeometry>
        </mxCell>
        <mxCell id="fSEFGYRT9wEeC8FM_eow-27" value="Success of Project Spark Welding" style="shape=partialRectangle;overflow=hidden;connectable=0;fillColor=none;top=0;left=0;bottom=0;right=0;align=left;spacingLeft=6;fontStyle=1;verticalAlign=middle;horizontal=1;fontFamily=Bebas Neue;fontSize=18;fontSource=https%3A%2F%2Ffonts.googleapis.com%2Fcss%3Ffamily%3DBebas%2BNeue;labelBackgroundColor=none;sketch=1;curveFitting=1;jiggle=2;" vertex="1" parent="fSEFGYRT9wEeC8FM_eow-25">
          <mxGeometry x="30" width="330" height="30" as="geometry">
            <mxRectangle width="330" height="30" as="alternateBounds" />
          </mxGeometry>
        </mxCell>
        <mxCell id="fSEFGYRT9wEeC8FM_eow-22" style="shape=partialRectangle;collapsible=0;dropTarget=0;pointerEvents=0;fillColor=none;points=[[0,0.5],[1,0.5]];portConstraint=eastwest;top=0;left=0;right=0;bottom=1;labelBackgroundColor=none;sketch=1;curveFitting=1;jiggle=2;" vertex="1" parent="C-vyLk0tnHw3VtMMgP7b-23">
          <mxGeometry y="70" width="360" height="30" as="geometry" />
        </mxCell>
        <mxCell id="fSEFGYRT9wEeC8FM_eow-23" style="shape=partialRectangle;overflow=hidden;connectable=0;fillColor=none;top=0;left=0;bottom=0;right=0;fontStyle=1;labelBackgroundColor=none;sketch=1;curveFitting=1;jiggle=2;" vertex="1" parent="fSEFGYRT9wEeC8FM_eow-22">
          <mxGeometry width="30" height="30" as="geometry">
            <mxRectangle width="30" height="30" as="alternateBounds" />
          </mxGeometry>
        </mxCell>
        <mxCell id="fSEFGYRT9wEeC8FM_eow-24" style="shape=partialRectangle;overflow=hidden;connectable=0;fillColor=none;top=0;left=0;bottom=0;right=0;align=center;spacingLeft=6;fontStyle=5;verticalAlign=middle;horizontal=1;fontFamily=Times New Roman;fontSize=15;labelBackgroundColor=none;sketch=1;curveFitting=1;jiggle=2;" vertex="1" parent="fSEFGYRT9wEeC8FM_eow-22">
          <mxGeometry x="30" width="330" height="30" as="geometry">
            <mxRectangle width="330" height="30" as="alternateBounds" />
          </mxGeometry>
        </mxCell>
        <mxCell id="fSEFGYRT9wEeC8FM_eow-13" style="shape=partialRectangle;collapsible=0;dropTarget=0;pointerEvents=0;fillColor=none;points=[[0,0.5],[1,0.5]];portConstraint=eastwest;top=0;left=0;right=0;bottom=1;labelBackgroundColor=none;sketch=1;curveFitting=1;jiggle=2;" vertex="1" parent="C-vyLk0tnHw3VtMMgP7b-23">
          <mxGeometry y="100" width="360" height="30" as="geometry" />
        </mxCell>
        <mxCell id="fSEFGYRT9wEeC8FM_eow-14" style="shape=partialRectangle;overflow=hidden;connectable=0;fillColor=none;top=0;left=0;bottom=0;right=0;fontStyle=1;labelBackgroundColor=none;sketch=1;curveFitting=1;jiggle=2;" vertex="1" parent="fSEFGYRT9wEeC8FM_eow-13">
          <mxGeometry width="30" height="30" as="geometry">
            <mxRectangle width="30" height="30" as="alternateBounds" />
          </mxGeometry>
        </mxCell>
        <mxCell id="fSEFGYRT9wEeC8FM_eow-15" style="shape=partialRectangle;overflow=hidden;connectable=0;fillColor=none;top=0;left=0;bottom=0;right=0;align=center;spacingLeft=6;fontStyle=5;verticalAlign=middle;horizontal=1;fontFamily=Times New Roman;fontSize=15;labelBackgroundColor=none;sketch=1;curveFitting=1;jiggle=2;" vertex="1" parent="fSEFGYRT9wEeC8FM_eow-13">
          <mxGeometry x="30" width="330" height="30" as="geometry">
            <mxRectangle width="330" height="30" as="alternateBounds" />
          </mxGeometry>
        </mxCell>
        <mxCell id="C-vyLk0tnHw3VtMMgP7b-24" value="" style="shape=partialRectangle;collapsible=0;dropTarget=0;pointerEvents=0;fillColor=none;points=[[0,0.5],[1,0.5]];portConstraint=eastwest;top=0;left=0;right=0;bottom=1;labelBackgroundColor=none;sketch=1;curveFitting=1;jiggle=2;" parent="C-vyLk0tnHw3VtMMgP7b-23" vertex="1">
          <mxGeometry y="130" width="360" height="30" as="geometry" />
        </mxCell>
        <mxCell id="C-vyLk0tnHw3VtMMgP7b-25" value="" style="shape=partialRectangle;overflow=hidden;connectable=0;fillColor=none;top=0;left=0;bottom=0;right=0;fontStyle=1;labelBackgroundColor=none;sketch=1;curveFitting=1;jiggle=2;" parent="C-vyLk0tnHw3VtMMgP7b-24" vertex="1">
          <mxGeometry width="30" height="30" as="geometry">
            <mxRectangle width="30" height="30" as="alternateBounds" />
          </mxGeometry>
        </mxCell>
        <mxCell id="C-vyLk0tnHw3VtMMgP7b-26" value="" style="shape=partialRectangle;overflow=hidden;connectable=0;fillColor=none;top=0;left=0;bottom=0;right=0;align=center;spacingLeft=6;fontStyle=5;verticalAlign=middle;horizontal=1;fontFamily=Times New Roman;fontSize=15;labelBackgroundColor=none;sketch=1;curveFitting=1;jiggle=2;" parent="C-vyLk0tnHw3VtMMgP7b-24" vertex="1">
          <mxGeometry x="30" width="330" height="30" as="geometry">
            <mxRectangle width="330" height="30" as="alternateBounds" />
          </mxGeometry>
        </mxCell>
        <mxCell id="fSEFGYRT9wEeC8FM_eow-29" value="2nd" style="shape=partialRectangle;overflow=hidden;connectable=0;fillColor=none;top=0;left=0;bottom=0;right=0;fontStyle=1;align=center;fontFamily=Verdana;labelBackgroundColor=none;sketch=1;curveFitting=1;jiggle=2;" vertex="1" parent="1">
          <mxGeometry x="250" y="150" width="30" height="30" as="geometry">
            <mxRectangle width="30" height="30" as="alternateBounds" />
          </mxGeometry>
        </mxCell>
        <mxCell id="fSEFGYRT9wEeC8FM_eow-30" value="Text" style="text;strokeColor=none;align=center;fillColor=none;html=1;verticalAlign=middle;whiteSpace=wrap;rounded=0;labelBackgroundColor=none;sketch=1;curveFitting=1;jiggle=2;" vertex="1" parent="1">
          <mxGeometry x="320" y="30" width="200" height="50" as="geometry" />
        </mxCell>
        <mxCell id="fSEFGYRT9wEeC8FM_eow-31" value="&lt;font data-font-src=&quot;https://fonts.googleapis.com/css?family=Rubik+Burned&quot; face=&quot;Rubik Burned&quot; style=&quot;font-size: 29px;&quot;&gt;&lt;b style=&quot;font-size: 29px;&quot;&gt;Finale Requirements&lt;/b&gt;&lt;/font&gt;" style="shape=trapezoid;perimeter=trapezoidPerimeter;whiteSpace=wrap;html=1;fixedSize=1;fontSize=29;labelBackgroundColor=none;sketch=1;curveFitting=1;jiggle=2;" vertex="1" parent="1">
          <mxGeometry x="250" y="20" width="360" height="60" as="geometry" />
        </mxCell>
        <mxCell id="fSEFGYRT9wEeC8FM_eow-32" style="edgeStyle=orthogonalEdgeStyle;rounded=0;orthogonalLoop=1;jettySize=auto;html=1;entryX=0.5;entryY=0;entryDx=0;entryDy=0;labelBackgroundColor=none;fontColor=default;sketch=1;curveFitting=1;jiggle=2;" edge="1" parent="1" source="fSEFGYRT9wEeC8FM_eow-25">
          <mxGeometry relative="1" as="geometry">
            <mxPoint x="680" y="320" as="targetPoint" />
          </mxGeometry>
        </mxCell>
        <mxCell id="fSEFGYRT9wEeC8FM_eow-33" value="Project Spark Welding" style="swimlane;startSize=40;horizontal=1;containerType=tree;newEdgeStyle={&quot;edgeStyle&quot;:&quot;elbowEdgeStyle&quot;,&quot;startArrow&quot;:&quot;none&quot;,&quot;endArrow&quot;:&quot;none&quot;};fontSize=18;fontFamily=Bebas Neue;fontSource=https%3A%2F%2Ffonts.googleapis.com%2Fcss%3Ffamily%3DBebas%2BNeue;fontStyle=4;spacingTop=0;perimeterSpacing=0;fillStyle=auto;labelBackgroundColor=none;sketch=1;curveFitting=1;jiggle=2;" vertex="1" parent="1">
          <mxGeometry x="440" y="350" width="360" height="290" as="geometry" />
        </mxCell>
        <mxCell id="fSEFGYRT9wEeC8FM_eow-34" value="" style="edgeStyle=elbowEdgeStyle;elbow=vertical;sourcePerimeterSpacing=0;targetPerimeterSpacing=0;startArrow=none;endArrow=none;rounded=0;curved=0;labelBackgroundColor=none;fontColor=default;sketch=1;curveFitting=1;jiggle=2;" edge="1" parent="fSEFGYRT9wEeC8FM_eow-33" source="fSEFGYRT9wEeC8FM_eow-36" target="fSEFGYRT9wEeC8FM_eow-37">
          <mxGeometry relative="1" as="geometry" />
        </mxCell>
        <mxCell id="fSEFGYRT9wEeC8FM_eow-35" value="" style="edgeStyle=elbowEdgeStyle;elbow=vertical;sourcePerimeterSpacing=0;targetPerimeterSpacing=0;startArrow=none;endArrow=none;rounded=0;curved=0;labelBackgroundColor=none;fontColor=default;sketch=1;curveFitting=1;jiggle=2;" edge="1" parent="fSEFGYRT9wEeC8FM_eow-33" source="fSEFGYRT9wEeC8FM_eow-36" target="fSEFGYRT9wEeC8FM_eow-38">
          <mxGeometry relative="1" as="geometry" />
        </mxCell>
        <UserObject label="Creation of an artificial planeswalker&amp;nbsp; &amp;nbsp;" treeRoot="1" id="fSEFGYRT9wEeC8FM_eow-36">
          <mxCell style="whiteSpace=wrap;html=1;align=center;treeFolding=1;treeMoving=1;newEdgeStyle={&quot;edgeStyle&quot;:&quot;elbowEdgeStyle&quot;,&quot;startArrow&quot;:&quot;none&quot;,&quot;endArrow&quot;:&quot;none&quot;};labelBackgroundColor=none;sketch=1;curveFitting=1;jiggle=2;" vertex="1" parent="fSEFGYRT9wEeC8FM_eow-33">
            <mxGeometry x="120" y="50" width="120" height="60" as="geometry" />
          </mxCell>
        </UserObject>
        <mxCell id="fSEFGYRT9wEeC8FM_eow-37" value="Division" style="whiteSpace=wrap;html=1;align=center;verticalAlign=middle;treeFolding=1;treeMoving=1;newEdgeStyle={&quot;edgeStyle&quot;:&quot;elbowEdgeStyle&quot;,&quot;startArrow&quot;:&quot;none&quot;,&quot;endArrow&quot;:&quot;none&quot;};labelBackgroundColor=none;sketch=1;curveFitting=1;jiggle=2;" vertex="1" parent="fSEFGYRT9wEeC8FM_eow-33">
          <mxGeometry x="60" y="150" width="100" height="60" as="geometry" />
        </mxCell>
        <mxCell id="fSEFGYRT9wEeC8FM_eow-38" value="Division" style="whiteSpace=wrap;html=1;align=center;verticalAlign=middle;treeFolding=1;treeMoving=1;newEdgeStyle={&quot;edgeStyle&quot;:&quot;elbowEdgeStyle&quot;,&quot;startArrow&quot;:&quot;none&quot;,&quot;endArrow&quot;:&quot;none&quot;};labelBackgroundColor=none;sketch=1;curveFitting=1;jiggle=2;" vertex="1" parent="fSEFGYRT9wEeC8FM_eow-33">
          <mxGeometry x="200" y="150" width="100" height="60" as="geometry" />
        </mxCell>
        <mxCell id="fSEFGYRT9wEeC8FM_eow-48" value="AllegianceÂ " style="shape=table;startSize=30;container=1;collapsible=0;childLayout=tableLayout;strokeColor=default;fontSize=20;sketch=1;hachureGap=4;jiggle=2;curveFitting=1;fontFamily=Rubik Burned;fontSource=https%3A%2F%2Ffonts.googleapis.com%2Fcss%3Ffamily%3DRubik%2BBurned;" vertex="1" parent="1">
          <mxGeometry y="630" width="350" height="1021" as="geometry" />
        </mxCell>
        <mxCell id="fSEFGYRT9wEeC8FM_eow-49" value="" style="shape=tableRow;horizontal=0;startSize=0;swimlaneHead=0;swimlaneBody=0;strokeColor=inherit;top=0;left=0;bottom=0;right=0;collapsible=0;dropTarget=0;fillColor=none;points=[[0,0.5],[1,0.5]];portConstraint=eastwest;fontSize=16;sketch=1;hachureGap=4;jiggle=2;curveFitting=1;fontFamily=Architects Daughter;fontSource=https%3A%2F%2Ffonts.googleapis.com%2Fcss%3Ffamily%3DArchitects%2BDaughter;" vertex="1" parent="fSEFGYRT9wEeC8FM_eow-48">
          <mxGeometry y="30" width="350" height="127" as="geometry" />
        </mxCell>
        <mxCell id="fSEFGYRT9wEeC8FM_eow-50" value="Agenda of Time Travelers" style="shape=partialRectangle;html=1;whiteSpace=wrap;connectable=0;strokeColor=inherit;overflow=hidden;fillColor=none;top=0;left=0;bottom=0;right=0;pointerEvents=1;fontSize=16;sketch=1;hachureGap=4;jiggle=2;curveFitting=1;fontFamily=Oswald;fontSource=https%3A%2F%2Ffonts.googleapis.com%2Fcss%3Ffamily%3DOswald;fontStyle=1" vertex="1" parent="fSEFGYRT9wEeC8FM_eow-49">
          <mxGeometry width="116" height="127" as="geometry">
            <mxRectangle width="116" height="127" as="alternateBounds" />
          </mxGeometry>
        </mxCell>
        <mxCell id="fSEFGYRT9wEeC8FM_eow-51" value="&lt;font data-font-src=&quot;https://fonts.googleapis.com/css?family=Oswald&quot;&gt;Supreme Beings&lt;/font&gt;" style="shape=partialRectangle;html=1;whiteSpace=wrap;connectable=0;strokeColor=inherit;overflow=hidden;fillColor=none;top=0;left=0;bottom=0;right=0;pointerEvents=1;fontSize=16;sketch=1;hachureGap=4;jiggle=2;curveFitting=1;fontFamily=Oswald;fontSource=https%3A%2F%2Ffonts.googleapis.com%2Fcss%3Ffamily%3DOswald;fontStyle=1" vertex="1" parent="fSEFGYRT9wEeC8FM_eow-49">
          <mxGeometry x="116" width="118" height="127" as="geometry">
            <mxRectangle width="118" height="127" as="alternateBounds" />
          </mxGeometry>
        </mxCell>
        <mxCell id="fSEFGYRT9wEeC8FM_eow-52" value="&lt;b&gt;White Lotus&lt;/b&gt;" style="shape=partialRectangle;html=1;whiteSpace=wrap;connectable=0;strokeColor=inherit;overflow=hidden;fillColor=none;top=0;left=0;bottom=0;right=0;pointerEvents=1;fontSize=16;sketch=1;hachureGap=4;jiggle=2;curveFitting=1;fontFamily=Oswald;fontSource=https%3A%2F%2Ffonts.googleapis.com%2Fcss%3Ffamily%3DOswald;" vertex="1" parent="fSEFGYRT9wEeC8FM_eow-49">
          <mxGeometry x="234" width="116" height="127" as="geometry">
            <mxRectangle width="116" height="127" as="alternateBounds" />
          </mxGeometry>
        </mxCell>
        <mxCell id="fSEFGYRT9wEeC8FM_eow-53" value="" style="shape=tableRow;horizontal=0;startSize=0;swimlaneHead=0;swimlaneBody=0;strokeColor=inherit;top=0;left=0;bottom=0;right=0;collapsible=0;dropTarget=0;fillColor=none;points=[[0,0.5],[1,0.5]];portConstraint=eastwest;fontSize=16;sketch=1;hachureGap=4;jiggle=2;curveFitting=1;fontFamily=Architects Daughter;fontSource=https%3A%2F%2Ffonts.googleapis.com%2Fcss%3Ffamily%3DArchitects%2BDaughter;" vertex="1" parent="fSEFGYRT9wEeC8FM_eow-48">
          <mxGeometry y="157" width="350" height="76" as="geometry" />
        </mxCell>
        <mxCell id="fSEFGYRT9wEeC8FM_eow-54" value="" style="shape=partialRectangle;html=1;whiteSpace=wrap;connectable=0;strokeColor=inherit;overflow=hidden;fillColor=none;top=0;left=0;bottom=0;right=0;pointerEvents=1;fontSize=16;sketch=1;hachureGap=4;jiggle=2;curveFitting=1;fontFamily=Oswald;fontSource=https%3A%2F%2Ffonts.googleapis.com%2Fcss%3Ffamily%3DOswald;" vertex="1" parent="fSEFGYRT9wEeC8FM_eow-53">
          <mxGeometry width="116" height="76" as="geometry">
            <mxRectangle width="116" height="76" as="alternateBounds" />
          </mxGeometry>
        </mxCell>
        <mxCell id="fSEFGYRT9wEeC8FM_eow-55" value="" style="shape=partialRectangle;html=1;whiteSpace=wrap;connectable=0;strokeColor=inherit;overflow=hidden;fillColor=none;top=0;left=0;bottom=0;right=0;pointerEvents=1;fontSize=16;sketch=1;hachureGap=4;jiggle=2;curveFitting=1;fontFamily=Oswald;fontSource=https%3A%2F%2Ffonts.googleapis.com%2Fcss%3Ffamily%3DOswald;" vertex="1" parent="fSEFGYRT9wEeC8FM_eow-53">
          <mxGeometry x="116" width="118" height="76" as="geometry">
            <mxRectangle width="118" height="76" as="alternateBounds" />
          </mxGeometry>
        </mxCell>
        <mxCell id="fSEFGYRT9wEeC8FM_eow-56" value="" style="shape=partialRectangle;html=1;whiteSpace=wrap;connectable=0;strokeColor=inherit;overflow=hidden;fillColor=none;top=0;left=0;bottom=0;right=0;pointerEvents=1;fontSize=16;sketch=1;hachureGap=4;jiggle=2;curveFitting=1;fontFamily=Oswald;fontSource=https%3A%2F%2Ffonts.googleapis.com%2Fcss%3Ffamily%3DOswald;" vertex="1" parent="fSEFGYRT9wEeC8FM_eow-53">
          <mxGeometry x="234" width="116" height="76" as="geometry">
            <mxRectangle width="116" height="76" as="alternateBounds" />
          </mxGeometry>
        </mxCell>
        <mxCell id="fSEFGYRT9wEeC8FM_eow-57" value="" style="shape=tableRow;horizontal=0;startSize=0;swimlaneHead=0;swimlaneBody=0;strokeColor=inherit;top=0;left=0;bottom=0;right=0;collapsible=0;dropTarget=0;fillColor=none;points=[[0,0.5],[1,0.5]];portConstraint=eastwest;fontSize=16;sketch=1;hachureGap=4;jiggle=2;curveFitting=1;fontFamily=Architects Daughter;fontSource=https%3A%2F%2Ffonts.googleapis.com%2Fcss%3Ffamily%3DArchitects%2BDaughter;" vertex="1" parent="fSEFGYRT9wEeC8FM_eow-48">
          <mxGeometry y="233" width="350" height="68" as="geometry" />
        </mxCell>
        <mxCell id="fSEFGYRT9wEeC8FM_eow-58" value="" style="shape=partialRectangle;html=1;whiteSpace=wrap;connectable=0;strokeColor=inherit;overflow=hidden;fillColor=none;top=0;left=0;bottom=0;right=0;pointerEvents=1;fontSize=16;sketch=1;hachureGap=4;jiggle=2;curveFitting=1;fontFamily=Oswald;fontSource=https%3A%2F%2Ffonts.googleapis.com%2Fcss%3Ffamily%3DOswald;" vertex="1" parent="fSEFGYRT9wEeC8FM_eow-57">
          <mxGeometry width="116" height="68" as="geometry">
            <mxRectangle width="116" height="68" as="alternateBounds" />
          </mxGeometry>
        </mxCell>
        <mxCell id="fSEFGYRT9wEeC8FM_eow-59" value="" style="shape=partialRectangle;html=1;whiteSpace=wrap;connectable=0;strokeColor=inherit;overflow=hidden;fillColor=none;top=0;left=0;bottom=0;right=0;pointerEvents=1;fontSize=16;sketch=1;hachureGap=4;jiggle=2;curveFitting=1;fontFamily=Oswald;fontSource=https%3A%2F%2Ffonts.googleapis.com%2Fcss%3Ffamily%3DOswald;" vertex="1" parent="fSEFGYRT9wEeC8FM_eow-57">
          <mxGeometry x="116" width="118" height="68" as="geometry">
            <mxRectangle width="118" height="68" as="alternateBounds" />
          </mxGeometry>
        </mxCell>
        <mxCell id="fSEFGYRT9wEeC8FM_eow-60" value="" style="shape=partialRectangle;html=1;whiteSpace=wrap;connectable=0;strokeColor=inherit;overflow=hidden;fillColor=none;top=0;left=0;bottom=0;right=0;pointerEvents=1;fontSize=16;sketch=1;hachureGap=4;jiggle=2;curveFitting=1;fontFamily=Oswald;fontSource=https%3A%2F%2Ffonts.googleapis.com%2Fcss%3Ffamily%3DOswald;" vertex="1" parent="fSEFGYRT9wEeC8FM_eow-57">
          <mxGeometry x="234" width="116" height="68" as="geometry">
            <mxRectangle width="116" height="68" as="alternateBounds" />
          </mxGeometry>
        </mxCell>
        <mxCell id="fSEFGYRT9wEeC8FM_eow-86" value="" style="shape=tableRow;horizontal=0;startSize=0;swimlaneHead=0;swimlaneBody=0;strokeColor=inherit;top=0;left=0;bottom=0;right=0;collapsible=0;dropTarget=0;fillColor=none;points=[[0,0.5],[1,0.5]];portConstraint=eastwest;fontSize=16;sketch=1;hachureGap=4;jiggle=2;curveFitting=1;fontFamily=Architects Daughter;fontSource=https%3A%2F%2Ffonts.googleapis.com%2Fcss%3Ffamily%3DArchitects%2BDaughter;" vertex="1" parent="fSEFGYRT9wEeC8FM_eow-48">
          <mxGeometry y="301" width="350" height="76" as="geometry" />
        </mxCell>
        <mxCell id="fSEFGYRT9wEeC8FM_eow-87" value="" style="shape=partialRectangle;html=1;whiteSpace=wrap;connectable=0;strokeColor=inherit;overflow=hidden;fillColor=none;top=0;left=0;bottom=0;right=0;pointerEvents=1;fontSize=16;sketch=1;hachureGap=4;jiggle=2;curveFitting=1;fontFamily=Oswald;fontSource=https%3A%2F%2Ffonts.googleapis.com%2Fcss%3Ffamily%3DOswald;" vertex="1" parent="fSEFGYRT9wEeC8FM_eow-86">
          <mxGeometry width="116" height="76" as="geometry">
            <mxRectangle width="116" height="76" as="alternateBounds" />
          </mxGeometry>
        </mxCell>
        <mxCell id="fSEFGYRT9wEeC8FM_eow-88" value="" style="shape=partialRectangle;html=1;whiteSpace=wrap;connectable=0;strokeColor=inherit;overflow=hidden;fillColor=none;top=0;left=0;bottom=0;right=0;pointerEvents=1;fontSize=16;sketch=1;hachureGap=4;jiggle=2;curveFitting=1;fontFamily=Oswald;fontSource=https%3A%2F%2Ffonts.googleapis.com%2Fcss%3Ffamily%3DOswald;" vertex="1" parent="fSEFGYRT9wEeC8FM_eow-86">
          <mxGeometry x="116" width="118" height="76" as="geometry">
            <mxRectangle width="118" height="76" as="alternateBounds" />
          </mxGeometry>
        </mxCell>
        <mxCell id="fSEFGYRT9wEeC8FM_eow-89" value="" style="shape=partialRectangle;html=1;whiteSpace=wrap;connectable=0;strokeColor=inherit;overflow=hidden;fillColor=none;top=0;left=0;bottom=0;right=0;pointerEvents=1;fontSize=16;sketch=1;hachureGap=4;jiggle=2;curveFitting=1;fontFamily=Oswald;fontSource=https%3A%2F%2Ffonts.googleapis.com%2Fcss%3Ffamily%3DOswald;" vertex="1" parent="fSEFGYRT9wEeC8FM_eow-86">
          <mxGeometry x="234" width="116" height="76" as="geometry">
            <mxRectangle width="116" height="76" as="alternateBounds" />
          </mxGeometry>
        </mxCell>
        <mxCell id="fSEFGYRT9wEeC8FM_eow-90" value="" style="shape=tableRow;horizontal=0;startSize=0;swimlaneHead=0;swimlaneBody=0;strokeColor=inherit;top=0;left=0;bottom=0;right=0;collapsible=0;dropTarget=0;fillColor=none;points=[[0,0.5],[1,0.5]];portConstraint=eastwest;fontSize=16;sketch=1;hachureGap=4;jiggle=2;curveFitting=1;fontFamily=Architects Daughter;fontSource=https%3A%2F%2Ffonts.googleapis.com%2Fcss%3Ffamily%3DArchitects%2BDaughter;" vertex="1" parent="fSEFGYRT9wEeC8FM_eow-48">
          <mxGeometry y="377" width="350" height="68" as="geometry" />
        </mxCell>
        <mxCell id="fSEFGYRT9wEeC8FM_eow-91" value="" style="shape=partialRectangle;html=1;whiteSpace=wrap;connectable=0;strokeColor=inherit;overflow=hidden;fillColor=none;top=0;left=0;bottom=0;right=0;pointerEvents=1;fontSize=16;sketch=1;hachureGap=4;jiggle=2;curveFitting=1;fontFamily=Oswald;fontSource=https%3A%2F%2Ffonts.googleapis.com%2Fcss%3Ffamily%3DOswald;" vertex="1" parent="fSEFGYRT9wEeC8FM_eow-90">
          <mxGeometry width="116" height="68" as="geometry">
            <mxRectangle width="116" height="68" as="alternateBounds" />
          </mxGeometry>
        </mxCell>
        <mxCell id="fSEFGYRT9wEeC8FM_eow-92" value="" style="shape=partialRectangle;html=1;whiteSpace=wrap;connectable=0;strokeColor=inherit;overflow=hidden;fillColor=none;top=0;left=0;bottom=0;right=0;pointerEvents=1;fontSize=16;sketch=1;hachureGap=4;jiggle=2;curveFitting=1;fontFamily=Oswald;fontSource=https%3A%2F%2Ffonts.googleapis.com%2Fcss%3Ffamily%3DOswald;" vertex="1" parent="fSEFGYRT9wEeC8FM_eow-90">
          <mxGeometry x="116" width="118" height="68" as="geometry">
            <mxRectangle width="118" height="68" as="alternateBounds" />
          </mxGeometry>
        </mxCell>
        <mxCell id="fSEFGYRT9wEeC8FM_eow-93" value="" style="shape=partialRectangle;html=1;whiteSpace=wrap;connectable=0;strokeColor=inherit;overflow=hidden;fillColor=none;top=0;left=0;bottom=0;right=0;pointerEvents=1;fontSize=16;sketch=1;hachureGap=4;jiggle=2;curveFitting=1;fontFamily=Oswald;fontSource=https%3A%2F%2Ffonts.googleapis.com%2Fcss%3Ffamily%3DOswald;" vertex="1" parent="fSEFGYRT9wEeC8FM_eow-90">
          <mxGeometry x="234" width="116" height="68" as="geometry">
            <mxRectangle width="116" height="68" as="alternateBounds" />
          </mxGeometry>
        </mxCell>
        <mxCell id="fSEFGYRT9wEeC8FM_eow-94" value="" style="shape=tableRow;horizontal=0;startSize=0;swimlaneHead=0;swimlaneBody=0;strokeColor=inherit;top=0;left=0;bottom=0;right=0;collapsible=0;dropTarget=0;fillColor=none;points=[[0,0.5],[1,0.5]];portConstraint=eastwest;fontSize=16;sketch=1;hachureGap=4;jiggle=2;curveFitting=1;fontFamily=Architects Daughter;fontSource=https%3A%2F%2Ffonts.googleapis.com%2Fcss%3Ffamily%3DArchitects%2BDaughter;" vertex="1" parent="fSEFGYRT9wEeC8FM_eow-48">
          <mxGeometry y="445" width="350" height="76" as="geometry" />
        </mxCell>
        <mxCell id="fSEFGYRT9wEeC8FM_eow-95" value="" style="shape=partialRectangle;html=1;whiteSpace=wrap;connectable=0;strokeColor=inherit;overflow=hidden;fillColor=none;top=0;left=0;bottom=0;right=0;pointerEvents=1;fontSize=16;sketch=1;hachureGap=4;jiggle=2;curveFitting=1;fontFamily=Oswald;fontSource=https%3A%2F%2Ffonts.googleapis.com%2Fcss%3Ffamily%3DOswald;" vertex="1" parent="fSEFGYRT9wEeC8FM_eow-94">
          <mxGeometry width="116" height="76" as="geometry">
            <mxRectangle width="116" height="76" as="alternateBounds" />
          </mxGeometry>
        </mxCell>
        <mxCell id="fSEFGYRT9wEeC8FM_eow-96" value="" style="shape=partialRectangle;html=1;whiteSpace=wrap;connectable=0;strokeColor=inherit;overflow=hidden;fillColor=none;top=0;left=0;bottom=0;right=0;pointerEvents=1;fontSize=16;sketch=1;hachureGap=4;jiggle=2;curveFitting=1;fontFamily=Oswald;fontSource=https%3A%2F%2Ffonts.googleapis.com%2Fcss%3Ffamily%3DOswald;" vertex="1" parent="fSEFGYRT9wEeC8FM_eow-94">
          <mxGeometry x="116" width="118" height="76" as="geometry">
            <mxRectangle width="118" height="76" as="alternateBounds" />
          </mxGeometry>
        </mxCell>
        <mxCell id="fSEFGYRT9wEeC8FM_eow-97" value="" style="shape=partialRectangle;html=1;whiteSpace=wrap;connectable=0;strokeColor=inherit;overflow=hidden;fillColor=none;top=0;left=0;bottom=0;right=0;pointerEvents=1;fontSize=16;sketch=1;hachureGap=4;jiggle=2;curveFitting=1;fontFamily=Oswald;fontSource=https%3A%2F%2Ffonts.googleapis.com%2Fcss%3Ffamily%3DOswald;" vertex="1" parent="fSEFGYRT9wEeC8FM_eow-94">
          <mxGeometry x="234" width="116" height="76" as="geometry">
            <mxRectangle width="116" height="76" as="alternateBounds" />
          </mxGeometry>
        </mxCell>
        <mxCell id="fSEFGYRT9wEeC8FM_eow-98" value="" style="shape=tableRow;horizontal=0;startSize=0;swimlaneHead=0;swimlaneBody=0;strokeColor=inherit;top=0;left=0;bottom=0;right=0;collapsible=0;dropTarget=0;fillColor=none;points=[[0,0.5],[1,0.5]];portConstraint=eastwest;fontSize=16;sketch=1;hachureGap=4;jiggle=2;curveFitting=1;fontFamily=Architects Daughter;fontSource=https%3A%2F%2Ffonts.googleapis.com%2Fcss%3Ffamily%3DArchitects%2BDaughter;" vertex="1" parent="fSEFGYRT9wEeC8FM_eow-48">
          <mxGeometry y="521" width="350" height="68" as="geometry" />
        </mxCell>
        <mxCell id="fSEFGYRT9wEeC8FM_eow-99" value="" style="shape=partialRectangle;html=1;whiteSpace=wrap;connectable=0;strokeColor=inherit;overflow=hidden;fillColor=none;top=0;left=0;bottom=0;right=0;pointerEvents=1;fontSize=16;sketch=1;hachureGap=4;jiggle=2;curveFitting=1;fontFamily=Oswald;fontSource=https%3A%2F%2Ffonts.googleapis.com%2Fcss%3Ffamily%3DOswald;" vertex="1" parent="fSEFGYRT9wEeC8FM_eow-98">
          <mxGeometry width="116" height="68" as="geometry">
            <mxRectangle width="116" height="68" as="alternateBounds" />
          </mxGeometry>
        </mxCell>
        <mxCell id="fSEFGYRT9wEeC8FM_eow-100" value="" style="shape=partialRectangle;html=1;whiteSpace=wrap;connectable=0;strokeColor=inherit;overflow=hidden;fillColor=none;top=0;left=0;bottom=0;right=0;pointerEvents=1;fontSize=16;sketch=1;hachureGap=4;jiggle=2;curveFitting=1;fontFamily=Oswald;fontSource=https%3A%2F%2Ffonts.googleapis.com%2Fcss%3Ffamily%3DOswald;" vertex="1" parent="fSEFGYRT9wEeC8FM_eow-98">
          <mxGeometry x="116" width="118" height="68" as="geometry">
            <mxRectangle width="118" height="68" as="alternateBounds" />
          </mxGeometry>
        </mxCell>
        <mxCell id="fSEFGYRT9wEeC8FM_eow-101" value="" style="shape=partialRectangle;html=1;whiteSpace=wrap;connectable=0;strokeColor=inherit;overflow=hidden;fillColor=none;top=0;left=0;bottom=0;right=0;pointerEvents=1;fontSize=16;sketch=1;hachureGap=4;jiggle=2;curveFitting=1;fontFamily=Oswald;fontSource=https%3A%2F%2Ffonts.googleapis.com%2Fcss%3Ffamily%3DOswald;" vertex="1" parent="fSEFGYRT9wEeC8FM_eow-98">
          <mxGeometry x="234" width="116" height="68" as="geometry">
            <mxRectangle width="116" height="68" as="alternateBounds" />
          </mxGeometry>
        </mxCell>
        <mxCell id="fSEFGYRT9wEeC8FM_eow-102" value="" style="shape=tableRow;horizontal=0;startSize=0;swimlaneHead=0;swimlaneBody=0;strokeColor=inherit;top=0;left=0;bottom=0;right=0;collapsible=0;dropTarget=0;fillColor=none;points=[[0,0.5],[1,0.5]];portConstraint=eastwest;fontSize=16;sketch=1;hachureGap=4;jiggle=2;curveFitting=1;fontFamily=Architects Daughter;fontSource=https%3A%2F%2Ffonts.googleapis.com%2Fcss%3Ffamily%3DArchitects%2BDaughter;" vertex="1" parent="fSEFGYRT9wEeC8FM_eow-48">
          <mxGeometry y="589" width="350" height="76" as="geometry" />
        </mxCell>
        <mxCell id="fSEFGYRT9wEeC8FM_eow-103" value="" style="shape=partialRectangle;html=1;whiteSpace=wrap;connectable=0;strokeColor=inherit;overflow=hidden;fillColor=none;top=0;left=0;bottom=0;right=0;pointerEvents=1;fontSize=16;sketch=1;hachureGap=4;jiggle=2;curveFitting=1;fontFamily=Oswald;fontSource=https%3A%2F%2Ffonts.googleapis.com%2Fcss%3Ffamily%3DOswald;" vertex="1" parent="fSEFGYRT9wEeC8FM_eow-102">
          <mxGeometry width="116" height="76" as="geometry">
            <mxRectangle width="116" height="76" as="alternateBounds" />
          </mxGeometry>
        </mxCell>
        <mxCell id="fSEFGYRT9wEeC8FM_eow-104" value="" style="shape=partialRectangle;html=1;whiteSpace=wrap;connectable=0;strokeColor=inherit;overflow=hidden;fillColor=none;top=0;left=0;bottom=0;right=0;pointerEvents=1;fontSize=16;sketch=1;hachureGap=4;jiggle=2;curveFitting=1;fontFamily=Oswald;fontSource=https%3A%2F%2Ffonts.googleapis.com%2Fcss%3Ffamily%3DOswald;" vertex="1" parent="fSEFGYRT9wEeC8FM_eow-102">
          <mxGeometry x="116" width="118" height="76" as="geometry">
            <mxRectangle width="118" height="76" as="alternateBounds" />
          </mxGeometry>
        </mxCell>
        <mxCell id="fSEFGYRT9wEeC8FM_eow-105" value="" style="shape=partialRectangle;html=1;whiteSpace=wrap;connectable=0;strokeColor=inherit;overflow=hidden;fillColor=none;top=0;left=0;bottom=0;right=0;pointerEvents=1;fontSize=16;sketch=1;hachureGap=4;jiggle=2;curveFitting=1;fontFamily=Oswald;fontSource=https%3A%2F%2Ffonts.googleapis.com%2Fcss%3Ffamily%3DOswald;" vertex="1" parent="fSEFGYRT9wEeC8FM_eow-102">
          <mxGeometry x="234" width="116" height="76" as="geometry">
            <mxRectangle width="116" height="76" as="alternateBounds" />
          </mxGeometry>
        </mxCell>
        <mxCell id="fSEFGYRT9wEeC8FM_eow-106" value="" style="shape=tableRow;horizontal=0;startSize=0;swimlaneHead=0;swimlaneBody=0;strokeColor=inherit;top=0;left=0;bottom=0;right=0;collapsible=0;dropTarget=0;fillColor=none;points=[[0,0.5],[1,0.5]];portConstraint=eastwest;fontSize=16;sketch=1;hachureGap=4;jiggle=2;curveFitting=1;fontFamily=Architects Daughter;fontSource=https%3A%2F%2Ffonts.googleapis.com%2Fcss%3Ffamily%3DArchitects%2BDaughter;" vertex="1" parent="fSEFGYRT9wEeC8FM_eow-48">
          <mxGeometry y="665" width="350" height="68" as="geometry" />
        </mxCell>
        <mxCell id="fSEFGYRT9wEeC8FM_eow-107" value="" style="shape=partialRectangle;html=1;whiteSpace=wrap;connectable=0;strokeColor=inherit;overflow=hidden;fillColor=none;top=0;left=0;bottom=0;right=0;pointerEvents=1;fontSize=16;sketch=1;hachureGap=4;jiggle=2;curveFitting=1;fontFamily=Oswald;fontSource=https%3A%2F%2Ffonts.googleapis.com%2Fcss%3Ffamily%3DOswald;" vertex="1" parent="fSEFGYRT9wEeC8FM_eow-106">
          <mxGeometry width="116" height="68" as="geometry">
            <mxRectangle width="116" height="68" as="alternateBounds" />
          </mxGeometry>
        </mxCell>
        <mxCell id="fSEFGYRT9wEeC8FM_eow-108" value="" style="shape=partialRectangle;html=1;whiteSpace=wrap;connectable=0;strokeColor=inherit;overflow=hidden;fillColor=none;top=0;left=0;bottom=0;right=0;pointerEvents=1;fontSize=16;sketch=1;hachureGap=4;jiggle=2;curveFitting=1;fontFamily=Oswald;fontSource=https%3A%2F%2Ffonts.googleapis.com%2Fcss%3Ffamily%3DOswald;" vertex="1" parent="fSEFGYRT9wEeC8FM_eow-106">
          <mxGeometry x="116" width="118" height="68" as="geometry">
            <mxRectangle width="118" height="68" as="alternateBounds" />
          </mxGeometry>
        </mxCell>
        <mxCell id="fSEFGYRT9wEeC8FM_eow-109" value="" style="shape=partialRectangle;html=1;whiteSpace=wrap;connectable=0;strokeColor=inherit;overflow=hidden;fillColor=none;top=0;left=0;bottom=0;right=0;pointerEvents=1;fontSize=16;sketch=1;hachureGap=4;jiggle=2;curveFitting=1;fontFamily=Oswald;fontSource=https%3A%2F%2Ffonts.googleapis.com%2Fcss%3Ffamily%3DOswald;" vertex="1" parent="fSEFGYRT9wEeC8FM_eow-106">
          <mxGeometry x="234" width="116" height="68" as="geometry">
            <mxRectangle width="116" height="68" as="alternateBounds" />
          </mxGeometry>
        </mxCell>
        <mxCell id="fSEFGYRT9wEeC8FM_eow-110" value="" style="shape=tableRow;horizontal=0;startSize=0;swimlaneHead=0;swimlaneBody=0;strokeColor=inherit;top=0;left=0;bottom=0;right=0;collapsible=0;dropTarget=0;fillColor=none;points=[[0,0.5],[1,0.5]];portConstraint=eastwest;fontSize=16;sketch=1;hachureGap=4;jiggle=2;curveFitting=1;fontFamily=Architects Daughter;fontSource=https%3A%2F%2Ffonts.googleapis.com%2Fcss%3Ffamily%3DArchitects%2BDaughter;" vertex="1" parent="fSEFGYRT9wEeC8FM_eow-48">
          <mxGeometry y="733" width="350" height="76" as="geometry" />
        </mxCell>
        <mxCell id="fSEFGYRT9wEeC8FM_eow-111" value="" style="shape=partialRectangle;html=1;whiteSpace=wrap;connectable=0;strokeColor=inherit;overflow=hidden;fillColor=none;top=0;left=0;bottom=0;right=0;pointerEvents=1;fontSize=16;sketch=1;hachureGap=4;jiggle=2;curveFitting=1;fontFamily=Oswald;fontSource=https%3A%2F%2Ffonts.googleapis.com%2Fcss%3Ffamily%3DOswald;" vertex="1" parent="fSEFGYRT9wEeC8FM_eow-110">
          <mxGeometry width="116" height="76" as="geometry">
            <mxRectangle width="116" height="76" as="alternateBounds" />
          </mxGeometry>
        </mxCell>
        <mxCell id="fSEFGYRT9wEeC8FM_eow-112" value="" style="shape=partialRectangle;html=1;whiteSpace=wrap;connectable=0;strokeColor=inherit;overflow=hidden;fillColor=none;top=0;left=0;bottom=0;right=0;pointerEvents=1;fontSize=16;sketch=1;hachureGap=4;jiggle=2;curveFitting=1;fontFamily=Oswald;fontSource=https%3A%2F%2Ffonts.googleapis.com%2Fcss%3Ffamily%3DOswald;" vertex="1" parent="fSEFGYRT9wEeC8FM_eow-110">
          <mxGeometry x="116" width="118" height="76" as="geometry">
            <mxRectangle width="118" height="76" as="alternateBounds" />
          </mxGeometry>
        </mxCell>
        <mxCell id="fSEFGYRT9wEeC8FM_eow-113" value="" style="shape=partialRectangle;html=1;whiteSpace=wrap;connectable=0;strokeColor=inherit;overflow=hidden;fillColor=none;top=0;left=0;bottom=0;right=0;pointerEvents=1;fontSize=16;sketch=1;hachureGap=4;jiggle=2;curveFitting=1;fontFamily=Oswald;fontSource=https%3A%2F%2Ffonts.googleapis.com%2Fcss%3Ffamily%3DOswald;" vertex="1" parent="fSEFGYRT9wEeC8FM_eow-110">
          <mxGeometry x="234" width="116" height="76" as="geometry">
            <mxRectangle width="116" height="76" as="alternateBounds" />
          </mxGeometry>
        </mxCell>
        <mxCell id="fSEFGYRT9wEeC8FM_eow-114" value="" style="shape=tableRow;horizontal=0;startSize=0;swimlaneHead=0;swimlaneBody=0;strokeColor=inherit;top=0;left=0;bottom=0;right=0;collapsible=0;dropTarget=0;fillColor=none;points=[[0,0.5],[1,0.5]];portConstraint=eastwest;fontSize=16;sketch=1;hachureGap=4;jiggle=2;curveFitting=1;fontFamily=Architects Daughter;fontSource=https%3A%2F%2Ffonts.googleapis.com%2Fcss%3Ffamily%3DArchitects%2BDaughter;" vertex="1" parent="fSEFGYRT9wEeC8FM_eow-48">
          <mxGeometry y="809" width="350" height="68" as="geometry" />
        </mxCell>
        <mxCell id="fSEFGYRT9wEeC8FM_eow-115" value="" style="shape=partialRectangle;html=1;whiteSpace=wrap;connectable=0;strokeColor=inherit;overflow=hidden;fillColor=none;top=0;left=0;bottom=0;right=0;pointerEvents=1;fontSize=16;sketch=1;hachureGap=4;jiggle=2;curveFitting=1;fontFamily=Oswald;fontSource=https%3A%2F%2Ffonts.googleapis.com%2Fcss%3Ffamily%3DOswald;" vertex="1" parent="fSEFGYRT9wEeC8FM_eow-114">
          <mxGeometry width="116" height="68" as="geometry">
            <mxRectangle width="116" height="68" as="alternateBounds" />
          </mxGeometry>
        </mxCell>
        <mxCell id="fSEFGYRT9wEeC8FM_eow-116" value="" style="shape=partialRectangle;html=1;whiteSpace=wrap;connectable=0;strokeColor=inherit;overflow=hidden;fillColor=none;top=0;left=0;bottom=0;right=0;pointerEvents=1;fontSize=16;sketch=1;hachureGap=4;jiggle=2;curveFitting=1;fontFamily=Oswald;fontSource=https%3A%2F%2Ffonts.googleapis.com%2Fcss%3Ffamily%3DOswald;" vertex="1" parent="fSEFGYRT9wEeC8FM_eow-114">
          <mxGeometry x="116" width="118" height="68" as="geometry">
            <mxRectangle width="118" height="68" as="alternateBounds" />
          </mxGeometry>
        </mxCell>
        <mxCell id="fSEFGYRT9wEeC8FM_eow-117" value="" style="shape=partialRectangle;html=1;whiteSpace=wrap;connectable=0;strokeColor=inherit;overflow=hidden;fillColor=none;top=0;left=0;bottom=0;right=0;pointerEvents=1;fontSize=16;sketch=1;hachureGap=4;jiggle=2;curveFitting=1;fontFamily=Oswald;fontSource=https%3A%2F%2Ffonts.googleapis.com%2Fcss%3Ffamily%3DOswald;" vertex="1" parent="fSEFGYRT9wEeC8FM_eow-114">
          <mxGeometry x="234" width="116" height="68" as="geometry">
            <mxRectangle width="116" height="68" as="alternateBounds" />
          </mxGeometry>
        </mxCell>
        <mxCell id="fSEFGYRT9wEeC8FM_eow-118" value="" style="shape=tableRow;horizontal=0;startSize=0;swimlaneHead=0;swimlaneBody=0;strokeColor=inherit;top=0;left=0;bottom=0;right=0;collapsible=0;dropTarget=0;fillColor=none;points=[[0,0.5],[1,0.5]];portConstraint=eastwest;fontSize=16;sketch=1;hachureGap=4;jiggle=2;curveFitting=1;fontFamily=Architects Daughter;fontSource=https%3A%2F%2Ffonts.googleapis.com%2Fcss%3Ffamily%3DArchitects%2BDaughter;" vertex="1" parent="fSEFGYRT9wEeC8FM_eow-48">
          <mxGeometry y="877" width="350" height="76" as="geometry" />
        </mxCell>
        <mxCell id="fSEFGYRT9wEeC8FM_eow-119" value="" style="shape=partialRectangle;html=1;whiteSpace=wrap;connectable=0;strokeColor=inherit;overflow=hidden;fillColor=none;top=0;left=0;bottom=0;right=0;pointerEvents=1;fontSize=16;sketch=1;hachureGap=4;jiggle=2;curveFitting=1;fontFamily=Oswald;fontSource=https%3A%2F%2Ffonts.googleapis.com%2Fcss%3Ffamily%3DOswald;" vertex="1" parent="fSEFGYRT9wEeC8FM_eow-118">
          <mxGeometry width="116" height="76" as="geometry">
            <mxRectangle width="116" height="76" as="alternateBounds" />
          </mxGeometry>
        </mxCell>
        <mxCell id="fSEFGYRT9wEeC8FM_eow-120" value="" style="shape=partialRectangle;html=1;whiteSpace=wrap;connectable=0;strokeColor=inherit;overflow=hidden;fillColor=none;top=0;left=0;bottom=0;right=0;pointerEvents=1;fontSize=16;sketch=1;hachureGap=4;jiggle=2;curveFitting=1;fontFamily=Oswald;fontSource=https%3A%2F%2Ffonts.googleapis.com%2Fcss%3Ffamily%3DOswald;" vertex="1" parent="fSEFGYRT9wEeC8FM_eow-118">
          <mxGeometry x="116" width="118" height="76" as="geometry">
            <mxRectangle width="118" height="76" as="alternateBounds" />
          </mxGeometry>
        </mxCell>
        <mxCell id="fSEFGYRT9wEeC8FM_eow-121" value="" style="shape=partialRectangle;html=1;whiteSpace=wrap;connectable=0;strokeColor=inherit;overflow=hidden;fillColor=none;top=0;left=0;bottom=0;right=0;pointerEvents=1;fontSize=16;sketch=1;hachureGap=4;jiggle=2;curveFitting=1;fontFamily=Oswald;fontSource=https%3A%2F%2Ffonts.googleapis.com%2Fcss%3Ffamily%3DOswald;" vertex="1" parent="fSEFGYRT9wEeC8FM_eow-118">
          <mxGeometry x="234" width="116" height="76" as="geometry">
            <mxRectangle width="116" height="76" as="alternateBounds" />
          </mxGeometry>
        </mxCell>
        <mxCell id="fSEFGYRT9wEeC8FM_eow-122" value="" style="shape=tableRow;horizontal=0;startSize=0;swimlaneHead=0;swimlaneBody=0;strokeColor=inherit;top=0;left=0;bottom=0;right=0;collapsible=0;dropTarget=0;fillColor=none;points=[[0,0.5],[1,0.5]];portConstraint=eastwest;fontSize=16;sketch=1;hachureGap=4;jiggle=2;curveFitting=1;fontFamily=Architects Daughter;fontSource=https%3A%2F%2Ffonts.googleapis.com%2Fcss%3Ffamily%3DArchitects%2BDaughter;" vertex="1" parent="fSEFGYRT9wEeC8FM_eow-48">
          <mxGeometry y="953" width="350" height="68" as="geometry" />
        </mxCell>
        <mxCell id="fSEFGYRT9wEeC8FM_eow-123" value="" style="shape=partialRectangle;html=1;whiteSpace=wrap;connectable=0;strokeColor=inherit;overflow=hidden;fillColor=none;top=0;left=0;bottom=0;right=0;pointerEvents=1;fontSize=16;sketch=1;hachureGap=4;jiggle=2;curveFitting=1;fontFamily=Oswald;fontSource=https%3A%2F%2Ffonts.googleapis.com%2Fcss%3Ffamily%3DOswald;" vertex="1" parent="fSEFGYRT9wEeC8FM_eow-122">
          <mxGeometry width="116" height="68" as="geometry">
            <mxRectangle width="116" height="68" as="alternateBounds" />
          </mxGeometry>
        </mxCell>
        <mxCell id="fSEFGYRT9wEeC8FM_eow-124" value="" style="shape=partialRectangle;html=1;whiteSpace=wrap;connectable=0;strokeColor=inherit;overflow=hidden;fillColor=none;top=0;left=0;bottom=0;right=0;pointerEvents=1;fontSize=16;sketch=1;hachureGap=4;jiggle=2;curveFitting=1;fontFamily=Oswald;fontSource=https%3A%2F%2Ffonts.googleapis.com%2Fcss%3Ffamily%3DOswald;" vertex="1" parent="fSEFGYRT9wEeC8FM_eow-122">
          <mxGeometry x="116" width="118" height="68" as="geometry">
            <mxRectangle width="118" height="68" as="alternateBounds" />
          </mxGeometry>
        </mxCell>
        <mxCell id="fSEFGYRT9wEeC8FM_eow-125" value="" style="shape=partialRectangle;html=1;whiteSpace=wrap;connectable=0;strokeColor=inherit;overflow=hidden;fillColor=none;top=0;left=0;bottom=0;right=0;pointerEvents=1;fontSize=16;sketch=1;hachureGap=4;jiggle=2;curveFitting=1;fontFamily=Oswald;fontSource=https%3A%2F%2Ffonts.googleapis.com%2Fcss%3Ffamily%3DOswald;" vertex="1" parent="fSEFGYRT9wEeC8FM_eow-122">
          <mxGeometry x="234" width="116" height="68" as="geometry">
            <mxRectangle width="116" height="68" as="alternateBounds" />
          </mxGeometry>
        </mxCell>
        <mxCell id="fSEFGYRT9wEeC8FM_eow-130" value="" style="verticalLabelPosition=bottom;html=1;verticalAlign=top;strokeWidth=2;shape=mxgraph.lean_mapping.timeline2;dx1=0;dy1=1;dx2=30;dy2=0;dx3=160;dy3=1;dx4=230;dy4=0;dx5=310;dy5=1;dy6=0;sketch=1;hachureGap=4;jiggle=2;curveFitting=1;fontFamily=Architects Daughter;fontSource=https%3A%2F%2Ffonts.googleapis.com%2Fcss%3Ffamily%3DArchitects%2BDaughter;fontSize=20;" vertex="1" parent="1">
          <mxGeometry x="500" y="1021" width="400" height="40" as="geometry" />
        </mxCell>
      </root>
    </mxGraphModel>
  </diagram>
</mxfile>
